# xmcd CD database file generated by freedbAccess_ocx
#
# Track frame offsets:
#       150
#       18236
#       34731
#       47431
#       61313
#       78433
#       92201
#       104311
#       119306
#       127673
#       141793
#       159233
#       170798
#       187391
#       200296
#       210826
#       222936
#       234918
#
# Disc length: 3420 seconds
#
# Revision: 0
# Processed by: cddbd v1.4PL0 Copyright (c) Steve Scherf et al.
# Submitted via: CDnGo 2.00
#
DISCID=ec0d5a12
DTITLE=Jan Vycital - Modlitba za Wimpyho a Wabiho
DYEAR=1995
DGENRE=Country
TTITLE0=Modlitba za Wimpyho
TTITLE1=Adios, cas nespoutas
TTITLE2=Kdo byl nalevo, uz je napravo
TTITLE3=Piti je vec prijemna
TTITLE4=Kdyz v Praze prvni jarni den naposled zasnezi
TTITLE5=Vraceci kocour
TTITLE6=V tomhle mrtvym busi
TTITLE7=Dorraine od Ponchartrain
TTITLE8=Tri melouny
TTITLE9=Mimozemstan
TTITLE10=Tom Dooley
TTITLE11=Ten, ktery tanci s vlkem
TTITLE12=Song o Rakolusky knajpe nad rekou
TTITLE13=Hej, chlape
TTITLE14=Venca Stych ma dva
TTITLE15=Glenn Miller Story
TTITLE16=Pivo Gambrinus je klidek
TTITLE17=Posledni song Wabimu Ryvolovi
EXTD=
EXTT0=
EXTT1=
EXTT2=
EXTT3=
EXTT4=
EXTT5=
EXTT6=
EXTT7=
EXTT8=
EXTT9=
EXTT10=
EXTT11=
EXTT12=
EXTT13=
EXTT14=
EXTT15=
EXTT16=
EXTT17=
PLAYORDER=
